<svg xmlns="http://www.w3.org/2000/svg" width="600" height="400" viewBox="0 0 600 400"><rect width="100%" height="100%" fill="#e0e0e0"/><path fill="#999" d="M139.7 195.93h12v14.63q-2.75 2.02-5.86 2.96t-6.66.94q-4.43 0-8.01-1.38-3.59-1.37-6.13-3.82t-3.91-5.85q-1.38-3.4-1.38-7.42 0-4.08 1.33-7.48 1.32-3.4 3.76-5.85t5.91-3.8q3.48-1.35 7.8-1.35 2.2 0 4.12.35 1.91.35 3.55.96 1.63.61 2.98 1.49 1.35.87 2.48 1.92l-1.93 3.05q-.45.73-1.17.89-.73.16-1.58-.36-.82-.48-1.65-.95-.82-.48-1.83-.83-1.02-.35-2.28-.57-1.26-.23-2.91-.23-2.68 0-4.84.9t-3.69 2.58q-1.52 1.67-2.35 4.02-.82 2.35-.82 5.26 0 3.09.89 5.53.88 2.44 2.5 4.13 1.61 1.68 3.88 2.57 2.28.89 5.08.89 2 0 3.57-.43 1.58-.42 3.08-1.15v-6.55h-4.55q-.65 0-1.01-.36-.37-.36-.37-.89zm22.4 2.35h11.65q0-1.2-.33-2.26-.34-1.06-1.02-1.86-.67-.8-1.71-1.26-1.04-.47-2.41-.47-2.68 0-4.21 1.53-1.54 1.53-1.97 4.32m15.75 3.73h-15.87q.15 1.97.7 3.41t1.45 2.38q.9.93 2.14 1.4 1.23.46 2.73.46t2.59-.35 1.9-.78q.81-.42 1.43-.77.61-.35 1.18-.35.78 0 1.15.57l1.78 2.25q-1.03 1.2-2.3 2.02-1.28.81-2.66 1.3-1.39.48-2.83.69-1.44.2-2.79.2-2.67 0-4.97-.89t-4-2.63-2.68-4.3q-.97-2.56-.97-5.94 0-2.62.85-4.93.85-2.32 2.44-4.03 1.58-1.71 3.87-2.71t5.16-1q2.43 0 4.48.77 2.05.78 3.52 2.27 1.48 1.48 2.32 3.65.83 2.16.83 4.93 0 1.4-.3 1.89t-1.15.49m10.95-3.73h11.65q0-1.2-.33-2.26-.34-1.06-1.02-1.86-.67-.8-1.71-1.26-1.04-.47-2.41-.47-2.68 0-4.21 1.53-1.54 1.53-1.97 4.32m15.75 3.73h-15.87q.15 1.97.7 3.41t1.45 2.38q.9.93 2.14 1.4 1.23.46 2.73.46t2.59-.35 1.9-.78q.81-.42 1.43-.77.61-.35 1.18-.35.78 0 1.15.57l1.78 2.25q-1.03 1.2-2.3 2.02-1.28.81-2.66 1.3-1.39.48-2.83.69-1.44.2-2.79.2-2.67 0-4.97-.89t-4-2.63-2.68-4.3q-.97-2.56-.97-5.94 0-2.62.85-4.93.85-2.32 2.44-4.03 1.58-1.71 3.87-2.71t5.16-1q2.43 0 4.48.77 2.05.78 3.52 2.27 1.48 1.48 2.32 3.65.83 2.16.83 4.93 0 1.4-.3 1.89t-1.15.49m11.43-12.48.42 2.03q.78-.78 1.64-1.44t1.83-1.12q.96-.47 2.06-.73t2.4-.26q2.1 0 3.72.71 1.63.71 2.72 2 1.08 1.29 1.65 3.08.56 1.78.56 3.94v16.32h-6.18v-16.32q0-2.36-1.07-3.64-1.08-1.29-3.28-1.29-1.6 0-3 .72-1.4.73-2.65 1.98v18.55h-6.17v-25.65h3.77q1.2 0 1.58 1.12m48.55 17.9v-4.32q-2.68.12-4.5.46-1.83.34-2.93.86-1.1.53-1.57 1.23-.48.7-.48 1.52 0 1.63.97 2.33.96.7 2.51.7 1.9 0 3.29-.69 1.38-.69 2.71-2.09m-13.05-13.47-1.1-1.98q4.42-4.05 10.65-4.05 2.25 0 4.02.74 1.78.74 3 2.05 1.23 1.31 1.87 3.14.63 1.82.63 4v16.2h-2.8q-.87 0-1.35-.26-.47-.27-.75-1.07l-.55-1.85q-.97.88-1.9 1.54-.92.66-1.92 1.11t-2.14.69-2.51.24q-1.63 0-3-.44-1.38-.44-2.38-1.31-1-.88-1.55-2.18t-.55-3.02q0-.98.33-1.94.32-.96 1.06-1.84.74-.87 1.91-1.65 1.18-.77 2.89-1.35 1.71-.57 3.99-.93 2.27-.37 5.2-.44v-1.5q0-2.58-1.1-3.81-1.1-1.24-3.18-1.24-1.5 0-2.48.35-.99.35-1.74.79l-1.36.78q-.62.35-1.37.35-.65 0-1.1-.33-.45-.34-.72-.79m32.85 20.1h-6.18v-21l-2.22-.35q-.73-.15-1.16-.51-.44-.37-.44-1.04v-2.53h3.82v-1.9q0-2.2.67-3.95.66-1.74 1.9-2.97 1.23-1.23 3.01-1.88 1.77-.64 4-.64 1.77 0 3.3.47l-.13 3.1q-.02.35-.2.56-.17.21-.46.33-.29.11-.66.15-.38.03-.8.03-1.1 0-1.96.24-.87.24-1.47.83-.6.58-.91 1.55-.31.96-.31 2.38v1.7h6.67v4.4h-6.47zm16.12-18.15v11.5q1.05 1.27 2.29 1.8 1.24.52 2.61.52 1.43 0 2.57-.51 1.13-.51 1.93-1.6t1.23-2.77q.42-1.69.42-4.04 0-4.23-1.4-6.11-1.4-1.89-4.02-1.89-1.78 0-3.1.81-1.33.81-2.53 2.29m0-19v14.65q1.55-1.63 3.44-2.59t4.31-.96q2.23 0 4.02.87 1.78.88 3.05 2.52 1.26 1.63 1.93 3.96.68 2.32.68 5.22 0 3.13-.78 5.68-.77 2.55-2.21 4.36t-3.46 2.81q-2.03 1.01-4.5 1.01-1.2 0-2.18-.24-.97-.24-1.8-.67-.82-.42-1.51-1.03-.69-.62-1.31-1.37l-.28 1.73q-.15.65-.51.92-.36.28-.99.28h-4.07v-37.15zm27.08 21.37h11.65q0-1.2-.34-2.26t-1.01-1.86q-.68-.8-1.71-1.26-1.04-.47-2.42-.47-2.67 0-4.21 1.53t-1.96 4.32m15.75 3.73H327.4q.15 1.97.7 3.41t1.45 2.38q.9.93 2.14 1.4 1.24.46 2.74.46t2.59-.35q1.08-.35 1.9-.78.81-.42 1.42-.77t1.19-.35q.77 0 1.15.57l1.77 2.25q-1.02 1.2-2.3 2.02-1.27.81-2.66 1.3-1.39.48-2.82.69-1.44.2-2.79.2-2.68 0-4.98-.89t-4-2.63-2.67-4.3q-.98-2.56-.98-5.94 0-2.62.85-4.93.85-2.32 2.44-4.03t3.88-2.71q2.28-1 5.16-1 2.42 0 4.47.77 2.05.78 3.53 2.27 1.47 1.48 2.31 3.65.84 2.16.84 4.93 0 1.4-.3 1.89t-1.15.49m10.95-3.73h11.65q0-1.2-.34-2.26t-1.01-1.86q-.68-.8-1.71-1.26-1.04-.47-2.42-.47-2.67 0-4.21 1.53t-1.96 4.32m15.75 3.73H354.1q.15 1.97.7 3.41t1.45 2.38q.9.93 2.14 1.4 1.24.46 2.74.46t2.59-.35q1.08-.35 1.9-.78.81-.42 1.42-.77t1.19-.35q.77 0 1.15.57l1.77 2.25q-1.02 1.2-2.3 2.02-1.27.81-2.66 1.3-1.39.48-2.82.69-1.44.2-2.79.2-2.68 0-4.98-.89t-4-2.63-2.67-4.3q-.98-2.56-.98-5.94 0-2.62.85-4.93.85-2.32 2.44-4.03t3.88-2.71q2.28-1 5.16-1 2.42 0 4.47.77 2.05.78 3.53 2.27 1.47 1.48 2.31 3.65.84 2.16.84 4.93 0 1.4-.3 1.89t-1.15.49m6.15-25.1h6.17v37.15h-6.17zm28.45 29.55v-11.5q-1.05-1.28-2.29-1.8-1.24-.53-2.66-.53-1.4 0-2.53.53-1.12.52-1.92 1.59-.8 1.06-1.23 2.7-.42 1.63-.42 3.86 0 2.25.36 3.81t1.04 2.55q.67.99 1.65 1.43.97.43 2.17.43 1.93 0 3.28-.8t2.55-2.27m0-29.55h6.17v37.15h-3.77q-1.23 0-1.55-1.13l-.53-2.47q-1.55 1.77-3.56 2.87-2.01 1.11-4.69 1.11-2.1 0-3.85-.88t-3.01-2.54-1.95-4.11-.69-5.6q0-2.85.78-5.3.77-2.45 2.22-4.25t3.48-2.81q2.02-1.02 4.55-1.02 2.15 0 3.67.68 1.53.67 2.73 1.82zm12.47 11.5h6.2v25.65h-6.2zm7.05-7.48q0 .8-.32 1.5-.33.7-.86 1.23-.54.52-1.27.84-.72.31-1.55.31-.8 0-1.51-.31-.71-.32-1.24-.84-.52-.53-.83-1.23-.32-.7-.32-1.5 0-.82.32-1.55.31-.72.83-1.25.53-.52 1.24-.83.71-.32 1.51-.32.83 0 1.55.32.73.31 1.27.83.53.53.86 1.25.32.73.32 1.55m10.8 8.6.43 2.03q.77-.78 1.64-1.44.86-.66 1.82-1.12.96-.47 2.06-.73t2.4-.26q2.1 0 3.73.71 1.62.71 2.71 2t1.65 3.08q.56 1.78.56 3.94v16.32h-6.17v-16.32q0-2.36-1.08-3.64-1.07-1.29-3.27-1.29-1.6 0-3 .72-1.4.73-2.65 1.98v18.55h-6.18v-25.65h3.78q1.2 0 1.57 1.12m32.23 11.08q1.15 0 2-.31.85-.32 1.41-.87t.85-1.32q.29-.78.29-1.7 0-1.9-1.14-3.01-1.14-1.12-3.41-1.12-2.28 0-3.41 1.12-1.14 1.11-1.14 3.01 0 .9.29 1.67.28.78.85 1.34.56.56 1.42.88.86.31 1.99.31m6.97 14.6q0-.75-.45-1.23-.45-.47-1.22-.73-.78-.26-1.81-.39-1.04-.13-2.2-.19-1.17-.06-2.4-.11-1.24-.05-2.42-.2-1.02.57-1.66 1.35t-.64 1.8q0 .68.34 1.26.34.59 1.08 1.02.73.42 1.91.66 1.17.24 2.87.24 1.73 0 2.98-.27 1.25-.26 2.06-.72t1.19-1.1q.37-.64.37-1.39m-1.22-25.93h7.37v2.3q0 1.1-1.32 1.35l-2.3.43q.52 1.32.52 2.9 0 1.9-.76 3.44-.76 1.53-2.11 2.61-1.35 1.07-3.19 1.66t-3.96.59q-.75 0-1.45-.08-.7-.07-1.38-.2-1.2.73-1.2 1.63 0 .77.72 1.14.71.36 1.88.51 1.18.15 2.68.19 1.5.03 3.07.16 1.58.12 3.08.44 1.5.31 2.67.98 1.18.68 1.89 1.84t.71 2.99q0 1.7-.83 3.3-.84 1.6-2.43 2.85t-3.9 2.01q-2.31.77-5.26.77-2.9 0-5.05-.57-2.15-.56-3.58-1.5-1.42-.93-2.12-2.16-.7-1.22-.7-2.55 0-1.8 1.09-3.01 1.08-1.22 2.98-1.94-1.02-.53-1.62-1.4-.6-.88-.6-2.3 0-.58.21-1.19t.63-1.21q.41-.6 1.03-1.14.63-.54 1.48-.96-1.95-1.05-3.06-2.8-1.12-1.75-1.12-4.1 0-1.9.77-3.44.76-1.54 2.12-2.62 1.36-1.09 3.23-1.67 1.86-.57 4.06-.57 1.65 0 3.1.34 1.45.33 2.65.98"/></svg>